<svg xmlns="http://www.w3.org/2000/svg" viewBox="0 0 64 64" shape-rendering="crispEdges">
  <rect width="64" height="64" fill="#ffffff"/>
  <circle cx="32" cy="32" r="28" fill="#cfe430"/>
  <path fill="#0b0b08" d="M5 26h2v2h-2zM7 26h2v2h-2zM9 26h2v2h-2zM3 28h2v2h-2zM11 28h2v2h-2zM3 30h2v2h-2zM11 30h2v2h-2zM3 32h2v2h-2zM5 32h2v2h-2zM7 32h2v2h-2zM9 32h2v2h-2zM11 32h2v2h-2zM3 34h2v2h-2zM11 34h2v2h-2zM3 36h2v2h-2zM11 36h2v2h-2zM17 26h2v2h-2zM19 26h2v2h-2zM21 26h2v2h-2zM23 26h2v2h-2zM17 28h2v2h-2zM23 28h2v2h-2zM17 30h2v2h-2zM23 30h2v2h-2zM17 32h2v2h-2zM23 32h2v2h-2zM15 34h2v2h-2zM17 34h2v2h-2zM19 34h2v2h-2zM21 34h2v2h-2zM23 34h2v2h-2zM15 36h2v2h-2zM23 36h2v2h-2zM27 26h2v2h-2zM29 26h2v2h-2zM31 26h2v2h-2zM33 26h2v2h-2zM35 26h2v2h-2zM27 28h2v2h-2zM27 30h2v2h-2zM27 32h2v2h-2zM29 32h2v2h-2zM31 32h2v2h-2zM33 32h2v2h-2zM27 34h2v2h-2zM27 36h2v2h-2zM29 36h2v2h-2zM31 36h2v2h-2zM33 36h2v2h-2zM35 36h2v2h-2zM39 26h2v2h-2zM41 26h2v2h-2zM43 26h2v2h-2zM45 26h2v2h-2zM47 26h2v2h-2zM39 28h2v2h-2zM47 28h2v2h-2zM39 30h2v2h-2zM47 30h2v2h-2zM39 32h2v2h-2zM47 32h2v2h-2zM39 34h2v2h-2zM47 34h2v2h-2zM39 36h2v2h-2zM47 36h2v2h-2zM51 26h2v2h-2zM53 26h2v2h-2zM55 26h2v2h-2zM57 26h2v2h-2zM59 26h2v2h-2zM55 28h2v2h-2zM55 30h2v2h-2zM55 32h2v2h-2zM55 34h2v2h-2zM55 36h2v2h-2z"/>
</svg>
